<svg width="24" height="23" viewBox="0 0 24 23" fill="none" xmlns="http://www.w3.org/2000/svg">
<path d="M24 3.06067C24 2.26502 23.6839 1.50196 23.1213 0.939349C22.5587 0.37674 21.7956 0.0606689 21 0.0606689L3 0.0606689C2.20435 0.0606689 1.44129 0.37674 0.878681 0.939349C0.316072 1.50196 0 2.26502 0 3.06067V15.0607C0 15.8563 0.316072 16.6194 0.878681 17.182C1.44129 17.7446 2.20435 18.0607 3 18.0607H17.379C17.7768 18.0608 18.1583 18.2188 18.4395 18.5002L22.719 22.7797C22.8238 22.8847 22.9574 22.9564 23.1029 22.9855C23.2485 23.0146 23.3994 22.9998 23.5365 22.9431C23.6736 22.8864 23.7909 22.7903 23.8734 22.667C23.9559 22.5436 24 22.3986 24 22.2502V14.5607V3.06067ZM18.75 4.56067C18.9489 4.56067 19.1397 4.63969 19.2803 4.78034C19.421 4.92099 19.5 5.11176 19.5 5.31067C19.5 5.50958 19.421 5.70035 19.2803 5.841C19.1397 5.98165 18.9489 6.06067 18.75 6.06067H5.25C5.05109 6.06067 4.86032 5.98165 4.71967 5.841C4.57902 5.70035 4.5 5.50958 4.5 5.31067C4.5 5.11176 4.57902 4.92099 4.71967 4.78034C4.86032 4.63969 5.05109 4.56067 5.25 4.56067H18.75ZM18.75 8.31067C18.9489 8.31067 19.1397 8.38969 19.2803 8.53034C19.421 8.67099 19.5 8.86176 19.5 9.06067C19.5 9.25958 19.421 9.45035 19.2803 9.591C19.1397 9.73165 18.9489 9.81067 18.75 9.81067H5.25C5.05109 9.81067 4.86032 9.73165 4.71967 9.591C4.57902 9.45035 4.5 9.25958 4.5 9.06067C4.5 8.86176 4.57902 8.67099 4.71967 8.53034C4.86032 8.38969 5.05109 8.31067 5.25 8.31067H18.75ZM18.75 12.0607C18.9489 12.0607 19.1397 12.1397 19.2803 12.2803C19.421 12.421 19.5 12.6118 19.5 12.8107C19.5 13.0096 19.421 13.2003 19.2803 13.341C19.1397 13.4817 18.9489 13.5607 18.75 13.5607H11.25C11.0511 13.5607 10.8603 13.4817 10.7197 13.341C10.579 13.2003 10.5 13.0096 10.5 12.8107C10.5 12.6118 10.579 12.421 10.7197 12.2803C10.8603 12.1397 11.0511 12.0607 11.25 12.0607H18.75Z" fill="white"/>
</svg>
